<?xml version="1.0" standalone="no"?>
<!DOCTYPE svg PUBLIC "-//W3C//DTD SVG 20010904//EN"
 "http://www.w3.org/TR/2001/REC-SVG-20010904/DTD/svg10.dtd">
<svg version="1.0" xmlns="http://www.w3.org/2000/svg"
 width="1042.000000pt" height="1042.000000pt" viewBox="0 0 1042.000000 1042.000000"
 preserveAspectRatio="xMidYMid meet">
<metadata>
Created by potrace 1.14, written by Peter Selinger 2001-2017
</metadata>
<g transform="translate(0.000000,1042.000000) scale(0.100000,-0.100000)"
fill="#000000" stroke="none">
<path d="M4958 7805 c-40 -15 -70 -41 -83 -71 -14 -35 -22 -105 -12 -111 8 -5
239 -8 296 -4 20 1 9 96 -16 129 -45 60 -117 83 -185 57z"/>
<path d="M3732 7570 c-40 -11 -92 -56 -108 -95 -32 -81 12 -179 94 -206 27 -9
183 -12 587 -13 l550 -1 0 -123 0 -122 158 0 157 0 0 123 0 124 558 0 c518 0
560 1 595 18 118 56 119 221 2 283 -27 14 -155 16 -1302 17 -699 0 -1280 -2
-1291 -5z"/>
<path d="M4757 6961 c-27 -8 -37 -37 -37 -112 0 -57 4 -82 16 -93 13 -14 53
-16 278 -16 300 0 287 -4 294 85 7 83 -4 124 -35 131 -27 7 -494 12 -516 5z"/>
<path d="M4240 6677 c-30 -16 -51 -37 -67 -67 -22 -41 -23 -53 -23 -254 0
-192 2 -214 20 -243 12 -20 31 -35 50 -40 l30 -8 -49 -69 c-27 -37 -60 -88
-73 -112 l-23 -44 -197 0 -198 0 -1 -27 c0 -16 -1 -238 -2 -495 -2 -462 -2
-468 18 -469 11 -1 110 -1 220 -1 l199 1 61 -61 c145 -145 376 -256 590 -284
28 -3 53 -8 57 -10 10 -6 278 -6 304 0 12 2 45 7 75 11 66 8 201 47 279 80
118 50 232 127 318 216 l43 45 138 -1 c204 -2 200 3 200 -250 0 -71 0 -133 0
-137 1 -5 223 -8 494 -8 l493 0 -1 219 c-2 120 -5 234 -8 252 -4 19 -9 52 -12
74 -22 148 -99 332 -188 450 -54 71 -164 172 -241 219 -65 41 -213 109 -264
121 -179 44 -263 54 -462 55 l-105 0 -28 49 c-15 27 -47 76 -72 109 -50 67
-52 72 -27 72 21 0 56 28 70 55 13 25 14 408 2 455 -12 44 -65 97 -111 110
-21 6 -311 10 -750 10 l-716 0 -43 -23z"/>
<path d="M3008 5977 c-4 -10 -3 -1283 1 -1297 0 -3 112 -5 249 -5 210 1 252 4
282 18 40 19 82 68 97 113 15 44 15 1001 0 1051 -16 51 -73 109 -122 121 -58
16 -502 14 -507 -1z"/>
<path d="M6095 4381 c-42 -8 -44 -23 -45 -323 0 -262 2 -290 18 -306 16 -16
59 -17 645 -17 610 0 629 1 643 19 11 16 14 75 14 306 0 274 -1 288 -20 305
-19 17 -56 18 -628 19 -335 1 -617 -1 -627 -3z"/>
<path d="M7087 3608 c-8 -13 -38 -66 -67 -118 -29 -52 -62 -111 -73 -130 -116
-205 -140 -273 -136 -380 7 -162 91 -307 207 -353 159 -64 317 39 377 246 16
56 17 178 2 236 -10 36 -72 166 -111 230 -33 54 -47 78 -116 206 -51 95 -60
101 -83 63z"/>
</g>
</svg>
